{"title":"PornstarsPunishment - 2 (DVDRIP)","uid":6289342,"size":1467479934,"categoryP":"porn","categoryS":"movies","magnet":"?xt=urn:btih:57bc8c3736e6a87a100bb9210db78038b59b5786&amp;dn=PornstarsPunishment+-+2+%28DVDRIP%29&amp;tr=udp%3A%2F%2Ftracker.openbittorrent.com%3A80&amp;tr=udp%3A%2F%2Fopen.demonii.com%3A1337&amp;tr=udp%3A%2F%2Ftracker.coppersurfer.tk%3A6969&amp;tr=udp%3A%2F%2Fexodus.desync.com%3A6969","seeders":0,"leechers":0,"uploader":null,"files":-1,"time":1301741465,"description":"SCREENSHOTS:\n\nEva Angelina - 2 Timing whore &lt;a href=&quot;\nhttp://lnk.co/GPJ0I&quot; rel=&quot;nofollow&quot; target=&quot;_NEW&quot;&gt;\nhttp://lnk.co/GPJ0I&lt;/a&gt;\n\nJenna Haze - Xmas Present &lt;a href=&quot;\nhttp://lnk.co/GPJ0K&quot; rel=&quot;nofollow&quot; target=&quot;_NEW&quot;&gt;\nhttp://lnk.co/GPJ0K&lt;/a&gt;\n\nKelly Devine - The Slut Mother &lt;a href=&quot;\nhttp://lnk.co/GPJ0M&quot; rel=&quot;nofollow&quot; target=&quot;_NEW&quot;&gt;\nhttp://lnk.co/GPJ0M&lt;/a&gt;\n\nRachel Starr - Who is laughing now &lt;a href=&quot;\nhttp://lnk.co/GPJ0O&quot; rel=&quot;nofollow&quot; target=&quot;_NEW&quot;&gt;\nhttp://lnk.co/GPJ0O&lt;/a&gt;\n\nMason Moore - Dress Conservatively &lt;a href=&quot;\nhttp://lnk.co/GPJ0Q&quot; rel=&quot;nofollow&quot; target=&quot;_NEW&quot;&gt;\nhttp://lnk.co/GPJ0Q&lt;/a&gt;\n\n\nVideo\nID                               : 0\nFormat                           : MPEG-4 Visual\nFormat profile                   : Advanced Simple@L5\nFormat settings, BVOP            : 2\nFormat settings, QPel            : No\nFormat settings, GMC             : No warppoints\nFormat settings, Matrix          : Default (H.263)\nCodec ID                         : XVID\nCodec ID/Hint                    : XviD\nDuration                         : 2h 31mn\nBit rate                         : 1 154 Kbps\nWidth                            : 624 pixels\nHeight                           : 352 pixels\nDisplay aspect ratio             : 16:9\nFrame rate                       : 29.970 fps\nColor space                      : YUV\nChroma subsampling               : 4:2:0\nBit depth                        : 8 bits\nScan type                        : Progressive\nCompression mode                 : Lossy\nBits/(Pixel*Frame)               : 0.175\nStream size                      : 1.22 GiB (89%)\n\nAudio\nID                               : 1\nFormat                           : MPEG Audio\nFormat version                   : Version 1\nFormat profile                   : Layer 3\nMode                             : Joint stereo\nMode extension                   : MS Stereo\nCodec ID                         : 55\nCodec ID/Hint                    : MP3\nDuration                         : 2h 30mn\nBit rate mode                    : Variable\nBit rate                         : 128 Kbps\nChannel(s)                       : 2 channels\nSampling rate                    : 48.0 KHz\nCompression mode                 : Lossy\nStream size                      : 136 MiB (10%)\nLanguage                         : English\n\nencoded for iPod,PSP,Zune and other handheld devices...:)","torrent":{"xt":"urn:btih:57bc8c3736e6a87a100bb9210db78038b59b5786","amp;dn":"PornstarsPunishment+-+2+%28DVDRIP%29","amp;tr":["udp%3A%2F%2Ftracker.openbittorrent.com%3A80","udp%3A%2F%2Fopen.demonii.com%3A1337","udp%3A%2F%2Ftracker.coppersurfer.tk%3A6969","udp%3A%2F%2Fexodus.desync.com%3A6969"],"infoHash":"57bc8c3736e6a87a100bb9210db78038b59b5786","infoHashBuffer":{"type":"Buffer","data":[87,188,140,55,54,230,168,122,16,11,185,33,13,183,128,56,181,155,87,134]},"announce":[],"urlList":[]}}